<?xml version="1.0" standalone="no"?>
<!DOCTYPE svg PUBLIC "-//W3C//DTD SVG 20010904//EN"
 "http://www.w3.org/TR/2001/REC-SVG-20010904/DTD/svg10.dtd">
<svg version="1.0" xmlns="http://www.w3.org/2000/svg"
 width="141.000000pt" height="141.000000pt" viewBox="0 0 141.000000 141.000000"
 preserveAspectRatio="xMidYMid meet">
<metadata>
Created by potrace 1.11, written by Peter Selinger 2001-2013
</metadata>
<g transform="translate(0.000000,141.000000) scale(0.100000,-0.100000)"
fill="#000000" stroke="none">
<path d="M750 923 c-85 -120 -210 -296 -277 -391 -68 -95 -123 -175 -123 -177
0 -3 37 -5 83 -5 l82 0 125 181 c196 282 265 379 270 378 3 0 93 -123 199
-274 206 -289 202 -286 274 -276 24 3 27 7 27 41 0 33 -27 76 -227 357 -126
176 -239 334 -253 352 l-25 32 -155 -218z"/>
<path d="M228 684 c-117 -169 -217 -313 -221 -321 -6 -10 8 -13 70 -13 l78 0
136 202 c75 111 140 203 145 205 5 2 27 -22 49 -52 22 -30 42 -55 46 -55 5 0
61 73 81 106 5 7 -27 55 -81 123 l-89 111 -214 -306z"/>
</g>
</svg>
